<svg xmlns="http://www.w3.org/2000/svg" viewBox="0 0 64 64"><path fill="#222" d="M41.15 51.31H19.59a1 1 0 0 1 0-2h20.56v-9.16H7v9.16h8.27a1 1 0 0 1 0 2H6a1 1 0 0 1-1-1V39.15a1 1 0 0 1 1-1h35.15a1 1 0 0 1 1 1v11.16a1 1 0 0 1-1 1Z"/><path fill="#222" d="M15.31 51.31h-3.9a1 1 0 0 1-1-1V39.15a1 1 0 0 1 2 0v10.16h1.9V43a1 1 0 1 1 2 0v7.28a1 1 0 0 1-1 1.03zm17.43-3.6a1 1 0 0 1-1-1v-4a1 1 0 0 1 2 0v4a1 1 0 0 1-1 1zm4 0a1 1 0 0 1-1-1v-4a1 1 0 0 1 2 0v4a1 1 0 0 1-1 1z"/><path fill="#222" d="M37.15 40.15H2a1 1 0 0 1-1-1V28a1 1 0 0 1 1-1h35.15a1 1 0 0 1 1 1v11.15a1 1 0 0 1-1 1ZM3 38.15h33.15V29H3Z"/><path fill="#222" d="M11.31 40.15h-3.9a1 1 0 0 1-1-1V31a1 1 0 0 1 2 0v7.11h1.9V28a1 1 0 0 1 2 0v11.15a1 1 0 0 1-1 1zm17.43-3.6a1 1 0 0 1-1-1v-4a1 1 0 0 1 2 0v4a1 1 0 0 1-1 1zm4 0a1 1 0 0 1-1-1v-4a1 1 0 1 1 2 0v4a1 1 0 0 1-1 1z"/><path fill="#222" d="M43.15 29H8a1 1 0 0 1-1-1V16.83a1 1 0 0 1 1-1h35.15a1 1 0 1 1 0 2H9V27h33.15v-2.6a1 1 0 0 1 2 0V28a1 1 0 0 1-1 1Z"/><path fill="#222" d="M13.41 29a1 1 0 0 1-1-1V16.83a1 1 0 0 1 1-1h3.9a1 1 0 0 1 1 1v8.57a1 1 0 0 1-2 0v-7.57h-1.9V28a1 1 0 0 1-1 1zm21.33-3.6a1 1 0 0 1-1-1v-4a1 1 0 0 1 2 0v4a1 1 0 0 1-1 1zm4 0a1 1 0 0 1-1-1v-4a1 1 0 0 1 2 0v4a1 1 0 0 1-1 1zM51 51.31a1 1 0 0 1-.56-.17 1 1 0 0 1-.44-.64l-6.17-30.88a1 1 0 0 1 .79-1.18 1 1 0 0 1 1.17.78l6 29.91 9-1.8-6.53-32.46-10 2a1 1 0 0 1-1.18-.78 1 1 0 0 1 .79-1.18l10.94-2.2a1 1 0 0 1 .75.15 1.06 1.06 0 0 1 .43.64l6.91 34.41a1 1 0 0 1-.79 1.18l-10.94 2.2z"/><path fill="#222" d="M50 46a1 1 0 0 1-1-.8l-.77-3.82a1 1 0 0 1 .15-.75.94.94 0 0 1 .63-.43L59.93 38a1 1 0 0 1 1.18.79l.77 3.82a1 1 0 0 1-.15.75 1 1 0 0 1-.63.43L50.16 46a.71.71 0 0 1-.16 0zm.41-4 .37 1.86 9-1.8-.37-1.86zm-1.13-17.57a1 1 0 0 1-1-.81 1 1 0 0 1 .78-1.17l3.9-.79a1 1 0 0 1 1.18.79 1 1 0 0 1-.78 1.18l-3.9.78zm-.79-3.92a1 1 0 0 1-.19-2l3.89-.78a1 1 0 0 1 .4 2l-3.9.79z"/></svg>